<svg width="24" height="24" viewBox="0 0 24 24" fill="none" xmlns="http://www.w3.org/2000/svg">
<path d="M23.9901 8.07271L23.0378 1.71177C22.9798 1.32426 22.6756 1.02005 22.2882 0.962108L15.9273 0.00983807C15.6476 -0.0320364 15.3647 0.0612611 15.1649 0.261134L0.261094 15.1649C-0.0870312 15.513 -0.0870312 16.0776 0.261094 16.4257L7.5743 23.7389C7.92242 24.0871 8.48693 24.0871 8.83506 23.7389L23.7389 8.83505C23.9387 8.63518 24.032 8.35225 23.9901 8.07271ZM10.0955 17.2786C10.0636 17.9192 9.72541 18.566 9.09023 19.2013C8.55944 19.732 7.95311 20.0751 7.59504 20.2076C7.52332 20.2342 7.44291 20.2061 7.40332 20.1406L6.90665 19.3196C6.88223 19.2792 6.87691 19.2302 6.89217 19.1856C6.90744 19.141 6.94171 19.1054 6.98577 19.0884C7.4716 18.9015 7.94321 18.6014 8.2797 18.2648C8.74788 17.7967 8.8367 17.3264 8.51727 17.007C8.23235 16.7221 7.86523 16.7539 7.06256 17.1334C5.89107 17.6998 5.01339 17.6678 4.38055 17.035C3.53207 16.1865 3.67819 14.9005 4.7439 13.8347C5.1516 13.4271 5.59133 13.1207 6.05086 12.924C6.12545 12.8919 6.21219 12.9212 6.25222 12.9918L6.71378 13.8062C6.73631 13.8459 6.74069 13.8935 6.72587 13.9366C6.71095 13.9797 6.67828 14.0145 6.6361 14.032C6.24804 14.1927 5.89823 14.4271 5.59635 14.7292C5.09152 15.2339 5.14618 15.6485 5.3658 15.8682C5.66692 16.1692 6.06577 16.0353 6.90431 15.6579C8.04581 15.1326 8.88061 15.1904 9.53046 15.8401C9.92145 16.2312 10.1222 16.7421 10.0955 17.2786ZM14.0817 14.0699L13.3486 14.8029C13.2942 14.8574 13.2087 14.8651 13.1455 14.8215L12.8495 14.6174L12.8285 14.6384C12.877 15.1305 12.6784 15.6269 12.2695 16.0359C11.5446 16.7607 10.6381 16.6127 10.1173 16.0918C9.61928 15.5938 9.49754 14.9619 9.76535 14.2646C9.98909 13.6818 10.4443 13.1512 10.7868 12.8088L10.8161 12.7798L10.7671 12.7309C10.6027 12.5664 10.2461 12.3714 9.70507 12.9125C9.43418 13.1835 9.19805 13.5636 9.07347 13.9291C9.0583 13.9738 9.02404 14.0096 8.97993 14.0265C8.93581 14.0435 8.88653 14.04 8.84525 14.0171L8.25399 13.6887C8.18605 13.6509 8.15527 13.5697 8.18108 13.4964C8.28512 13.2007 8.55153 12.6126 9.16702 11.9972C10.1499 11.0143 11.1792 11.0047 12.1437 11.9692L13.3316 13.1571C13.5329 13.3584 13.824 13.6389 14.0681 13.8324C14.1037 13.8607 14.1256 13.9028 14.1282 13.9481C14.1308 13.9935 14.1139 14.0377 14.0817 14.0699ZM15.6018 12.5499L14.765 13.3866C14.7028 13.4488 14.6019 13.4488 14.5397 13.3866L9.80384 8.65084C9.74157 8.58853 9.74157 8.48772 9.80384 8.42546L10.6405 7.58871C10.7028 7.5265 10.8037 7.5265 10.866 7.58871L15.6018 12.3246C15.664 12.3867 15.664 12.4877 15.6018 12.5499ZM18.8927 9.04815C18.682 9.48833 18.3465 9.94512 17.9226 10.369C17.3674 10.9241 16.7458 11.2258 16.125 11.2414C15.5011 11.2571 14.8904 10.9844 14.3588 10.4528C13.4804 9.57447 13.0751 8.08902 14.2609 6.90316C14.7698 6.39425 15.3713 6.17538 16.0003 6.27031C16.5126 6.3477 17.0415 6.63694 17.4892 7.08478C17.6218 7.21731 17.7258 7.34324 17.7897 7.42554C17.8389 7.489 17.8332 7.57921 17.7765 7.63606L15.6724 9.74012C16.0985 10.1035 16.7321 9.98008 17.2865 9.42567C17.5877 9.12454 17.8168 8.82843 18.0078 8.49379C18.0299 8.45534 18.0669 8.42764 18.1101 8.4176C18.1532 8.4075 18.1987 8.41591 18.2355 8.44062L18.838 8.84733C18.9036 8.89135 18.9268 8.97684 18.8927 9.04815ZM20.3823 5.68343C19.8119 6.2538 18.8871 6.2538 18.3166 5.68328C17.7462 5.1129 17.7462 4.18813 18.3166 3.61765C18.8871 3.04723 19.8119 3.04723 20.3823 3.61765C20.9527 4.18808 20.9527 5.11295 20.3823 5.68343Z" fill="#33BA74"/>
</svg>
