<svg width="64" height="64" viewBox="0 0 64 64" fill="none" xmlns="http://www.w3.org/2000/svg">
<g clip-path="url(#clip0_850_14338)">
<path d="M44.4755 20.5557C42.1805 19.5027 39.7205 18.7272 37.148 18.2832C37.1015 18.2742 37.055 18.2967 37.0295 18.3387C36.713 18.9012 36.362 19.6362 36.1175 20.2122C33.35 19.7982 30.5975 19.7982 27.887 20.2122C27.6425 19.6227 27.278 18.9012 26.9615 18.3387C26.936 18.2967 26.8895 18.2757 26.843 18.2832C24.272 18.7257 21.812 19.5012 19.5155 20.5557C19.496 20.5632 19.478 20.5782 19.4675 20.5962C14.801 27.5682 13.5215 34.3692 14.1485 41.0862C14.1515 41.1192 14.1695 41.1507 14.195 41.1702C17.2745 43.4322 20.2565 44.8047 23.1845 45.7137C23.231 45.7287 23.2805 45.7107 23.3105 45.6717C24.0035 44.7267 24.62 43.7292 25.1495 42.6807C25.181 42.6192 25.151 42.5457 25.0865 42.5217C24.107 42.1497 23.1755 41.6967 22.2785 41.1837C22.208 41.1417 22.202 41.0412 22.2665 40.9917C22.4555 40.8507 22.6445 40.7037 22.8245 40.5552C22.8575 40.5282 22.9025 40.5222 22.9415 40.5402C28.8335 43.2297 35.2115 43.2297 41.033 40.5402C41.072 40.5222 41.117 40.5267 41.1515 40.5552C41.3315 40.7037 41.5205 40.8522 41.711 40.9932C41.777 41.0412 41.7725 41.1432 41.7005 41.1852C40.8035 41.7087 39.872 42.1527 38.891 42.5217C38.8265 42.5457 38.7995 42.6207 38.8295 42.6822C39.3695 43.7292 39.9875 44.7267 40.667 45.6717C40.6955 45.7122 40.7465 45.7287 40.793 45.7152C43.7345 44.8047 46.718 43.4322 49.796 41.1717C49.823 41.1522 49.8395 41.1222 49.8425 41.0892C50.5925 33.3237 48.5855 26.5782 44.5205 20.5992C44.513 20.5782 44.495 20.5632 44.4755 20.5557ZM26.03 36.9972C24.2555 36.9972 22.7945 35.3682 22.7945 33.3687C22.7945 31.3692 24.227 29.7402 26.03 29.7402C27.8465 29.7402 29.294 31.3827 29.2655 33.3687C29.2655 35.3697 27.8315 36.9972 26.03 36.9972ZM37.9925 36.9972C36.2195 36.9972 34.757 35.3682 34.757 33.3687C34.757 31.3692 36.1895 29.7402 37.9925 29.7402C39.809 29.7402 41.2565 31.3827 41.228 33.3687C41.228 35.3697 39.809 36.9972 37.9925 36.9972Z" fill="white"/>
</g>
<defs>
<linearGradient id="paint0_linear_850_14338" x1="0" y1="0" x2="68.9763" y2="5.90874" gradientUnits="userSpaceOnUse">
<stop stop-color="#00F6FF"/>
<stop offset="0.484375" stop-color="#5D7EFF"/>
<stop offset="1" stop-color="#5429A0"/>
</linearGradient>
<clipPath id="clip0_850_14338">
<rect width="36" height="36" fill="white" transform="translate(14 14)"/>
</clipPath>
</defs>
</svg>
