<svg width="30" height="30" viewBox="0 0 72 55" fill="none" xmlns="http://www.w3.org/2000/svg">
<path d="M60.4971 4.89792C55.9718 2.82152 51.1191 1.29172 46.0453 0.415541C45.9529 0.398631 45.8606 0.44089 45.813 0.52541C45.1889 1.63542 44.4976 3.08352 44.0135 4.22172C38.5563 3.40472 33.1271 3.40472 27.7818 4.22172C27.2976 3.05822 26.5812 1.63542 25.9543 0.52541C25.9067 0.44371 25.8144 0.401451 25.722 0.415541C20.651 1.28892 15.7983 2.81872 11.2702 4.89792C11.231 4.91482 11.1974 4.94302 11.1751 4.97962C1.97053 18.731 -0.550983 32.1444 0.685986 45.3915C0.691583 45.4563 0.727964 45.5183 0.778339 45.5577C6.85124 50.0175 12.7339 52.725 18.5073 54.5196C18.5997 54.5478 18.6976 54.514 18.7564 54.4379C20.1221 52.5729 21.3395 50.6064 22.3833 48.5384C22.4449 48.4173 22.3861 48.2736 22.2602 48.2257C20.3292 47.4932 18.4905 46.6001 16.7218 45.5859C16.5819 45.5042 16.5707 45.3041 16.6994 45.2083C17.0716 44.9294 17.4439 44.6392 17.7993 44.3462C17.8636 44.2927 17.9532 44.2814 18.0288 44.3152C29.6484 49.6203 42.228 49.6203 53.7105 44.3152C53.7861 44.2786 53.8757 44.2899 53.9428 44.3434C54.2983 44.6364 54.6705 44.9294 55.0455 45.2083C55.1742 45.3041 55.1658 45.5042 55.0259 45.5859C53.2572 46.6198 51.4185 47.4932 49.4847 48.2229C49.3588 48.2708 49.3028 48.4173 49.3644 48.5384C50.4306 50.6035 51.648 52.57 52.9885 54.4351C53.0445 54.514 53.1452 54.5478 53.2376 54.5196C59.039 52.725 64.9216 50.0175 70.9945 45.5577C71.0477 45.5183 71.0813 45.4591 71.0869 45.3943C72.5673 30.0792 68.6073 16.7758 60.5894 4.98242C60.5698 4.94302 60.5363 4.91482 60.4971 4.89792ZM24.1185 37.3254C20.6202 37.3254 17.7377 34.1137 17.7377 30.1694C17.7377 26.2251 20.5643 23.0134 24.1185 23.0134C27.7006 23.0134 30.5552 26.2533 30.4992 30.1694C30.4992 34.1137 27.6726 37.3254 24.1185 37.3254ZM47.7104 37.3254C44.2122 37.3254 41.3297 34.1137 41.3297 30.1694C41.3297 26.2251 44.1562 23.0134 47.7104 23.0134C51.2926 23.0134 54.1471 26.2533 54.0912 30.1694C54.0912 34.1137 51.2926 37.3254 47.7104 37.3254Z" fill="white"/>
</svg>
