<svg width="30" height="30" viewBox="0 0 79 64" fill="none" xmlns="http://www.w3.org/2000/svg">
<path d="M78.3923 7.7933C75.508 9.07246 72.4083 9.93699 69.155 10.3258C72.4757 8.33525 75.0257 5.18338 76.2266 1.42792C73.1192 3.27081 69.6771 4.60932 66.0137 5.33077C63.0798 2.20499 58.8999 0.251709 54.2742 0.251709C45.3918 0.251709 38.1906 7.45266 38.1906 16.3345C38.1906 17.595 38.3331 18.8225 38.6072 19.9996C25.2404 19.3289 13.3897 12.926 5.45727 3.19569C4.07288 5.57106 3.27975 8.33381 3.27975 11.2812C3.27975 16.8609 6.11936 21.7837 10.4348 24.6678C7.79823 24.5843 5.31849 23.8609 3.14986 22.6563C3.14871 22.7234 3.14871 22.7908 3.14871 22.8584C3.14871 30.6509 8.69258 37.1514 16.0501 38.6287C14.7004 38.9963 13.2796 39.1927 11.8126 39.1927C10.7763 39.1927 9.76872 39.092 8.78692 38.9042C10.8334 45.294 16.773 49.9438 23.8108 50.0737C18.3065 54.3871 11.3716 56.9583 3.83661 56.9583C2.53853 56.9583 1.25822 56.8824 0 56.7338C7.11751 61.297 15.5715 63.9594 24.6541 63.9594C54.2366 63.9594 70.4135 39.4525 70.4135 18.1995C70.4135 17.5021 70.398 16.8085 70.367 16.1189C73.5091 13.8513 76.236 11.0186 78.3923 7.7933Z" fill="white"/>
</svg>
