<svg xmlns="http://www.w3.org/2000/svg" xmlns:xlink="http://www.w3.org/1999/xlink" version="1.1" width="1000" height="1000" viewBox="0 0 1000 1000" xml:space="preserve">
<desc>Created with Fabric.js 3.5.0</desc>
<defs>
</defs>
<rect x="0" y="0" width="100%" height="100%" fill="rgba(255,255,255,0)"/>
<g transform="matrix(0.3352 0 0 0.3352 500.0443 565.6789)" id="2918">
<g style="" vector-effect="non-scaling-stroke">
		<g transform="matrix(1 0 0 1 0.0003 0.0025)" id="Layer_1-2">
<linearGradient id="SVGID_4" gradientUnits="userSpaceOnUse" gradientTransform="matrix(1 0 0 1 0 1274)" x1="0" y1="-330.01" x2="2000.04" y2="-330.01">
<stop offset="0%" style="stop-color:rgb(157,74,190);stop-opacity: 1"/>
<stop offset="3%" style="stop-color:rgb(144,85,196);stop-opacity: 1"/>
<stop offset="15%" style="stop-color:rgb(107,116,214);stop-opacity: 1"/>
<stop offset="26%" style="stop-color:rgb(76,143,229);stop-opacity: 1"/>
<stop offset="39%" style="stop-color:rgb(52,163,240);stop-opacity: 1"/>
<stop offset="52%" style="stop-color:rgb(34,178,249);stop-opacity: 1"/>
<stop offset="66%" style="stop-color:rgb(24,186,253);stop-opacity: 1"/>
<stop offset="83%" style="stop-color:rgb(21,189,255);stop-opacity: 1"/>
<stop offset="100%" style="stop-color:rgb(40,186,213);stop-opacity: 1"/>
</linearGradient>
<path style="stroke: none; stroke-width: 1; stroke-dasharray: none; stroke-linecap: butt; stroke-dashoffset: 0; stroke-linejoin: miter; stroke-miterlimit: 4; is-custom-font: none; font-file-url: none; fill: url(#SVGID_4); fill-rule: nonzero; opacity: 1;" transform=" translate(-1000.0203, -943.9875)" d="M 859.79 1803 L 4.39 60.7 C -9.51 32.9 11.39 0 42.19 0 h 296.4 c 15.9 0 30.8 9 37.8 22.9 l 624.7 1264 c 55.7 113.4 216.8 113.4 272.5 0 l 622.7 -1263 c 7 -13.9 21.9 -22.9 37.8 -22.9 h 36.8 c 21.9 0 35.8 22.9 25.9 41.8 L 1132.39 1803 c -55.7 113.3 -216.9 113.3 -272.6 0 Z" stroke-linecap="round"/>
</g>
		<g transform="matrix(1 0 0 1 -569.9743 -41.985)" id="Layer_1-2">
<path style="stroke: none; stroke-width: 1; stroke-dasharray: none; stroke-linecap: butt; stroke-dashoffset: 0; stroke-linejoin: miter; stroke-miterlimit: 4; is-custom-font: none; font-file-url: none; fill: rgb(255,255,255); fill-rule: nonzero; opacity: 0.1;" transform=" translate(-430.0457, -902)" d="M 859.79 1803 L 376.39 23.9 C 369.39 9 353.49 1 340.59 1 H 43.19 C 10.39 1 -8.51 33.8 4.39 61.7 Z" stroke-linecap="round"/>
</g>
		<g transform="matrix(1 0 0 1 -499.1504 -300.085)" id="Layer_1-2">
<path style="stroke: none; stroke-width: 1; stroke-dasharray: none; stroke-linecap: butt; stroke-dashoffset: 0; stroke-linejoin: miter; stroke-miterlimit: 4; is-custom-font: none; font-file-url: none; fill: rgb(255,255,255); fill-rule: nonzero; opacity: 0.1;" transform=" translate(-500.8696, -643.9)" d="M 1001.09 1287.8 L 4.39 60.7 C -7.51 31.9 10.39 3 38.19 0 h 301.4 c 16.9 1 29.8 11.9 35.8 22.9 Z" stroke-linecap="round"/>
</g>
</g>
</g>
</svg>